<?xml version="1.0" encoding="UTF-8" standalone="no"?>
<!DOCTYPE svg PUBLIC "-//W3C//DTD SVG 1.1//EN" "http://www.w3.org/Graphics/SVG/1.1/DTD/svg11.dtd">
<svg width="100%" height="100%" viewBox="0 0 100 40" version="1.1" xmlns="http://www.w3.org/2000/svg" xmlns:xlink="http://www.w3.org/1999/xlink" xml:space="preserve" xmlns:serif="http://www.serif.com/" style="fill-rule:evenodd;clip-rule:evenodd;stroke-linejoin:round;stroke-miterlimit:2;">
    <g transform="matrix(1,0,0,1,-8.76031,-7.5014)">
        <g transform="matrix(1,0,0,1,-11.2697,-12.548)">
            <g id="Layer_1-2">
                <g>
                    <g>
                        <path d="M49.08,55.31C51.59,55.31 52.96,53.64 52.96,51.3L52.96,39.36L58.3,39.36L58.3,51.57C58.25,56.94 53.94,59.05 49.08,59.05C44.22,59.05 39.91,56.94 39.86,51.57L39.86,39.36L45.2,39.36L45.2,51.3C45.2,53.64 46.56,55.31 49.08,55.31Z" style="fill:rgb(0,166,214);fill-rule:nonzero;"/>
                        <path d="M84.47,50.66C84.49,48.57 85.75,46.68 87.87,46.68C90.33,46.68 91.29,48.36 91.29,50.66L84.47,50.66ZM93.96,52.42L93.96,51.16C93.96,47.45 91.86,44.82 88.05,44.82C83.8,44.82 81.82,48.11 81.82,52.04C81.82,55.97 83.53,59.04 87.83,59.04C91.04,59.04 93.39,57.52 93.79,54.47L91.12,54.47C90.82,56.42 89.84,57.2 87.86,57.2C85.27,57.2 84.41,54.89 84.41,52.42L93.96,52.42Z" style="fill-rule:nonzero;"/>
                        <rect x="97.04" y="39.36" width="2.54" height="19.29"/>
                        <path d="M26.01,58.65L31.36,58.65L31.36,43.1L37.34,43.1L37.34,39.36L20.03,39.36L20.03,43.1L26.01,43.1L26.01,58.65Z" style="fill-rule:nonzero;"/>
                        <path d="M38.85,29.96C37.55,30.37 36.2,30.04 36.21,28.3C36.21,25.64 42.45,23.41 43.32,21.09C43.53,20.51 43.55,20.03 43.27,20.05C43.07,20.06 43.23,20.35 42.79,20.79C40.21,23.38 35.87,23.37 32.55,24.86C30.37,25.84 23.98,28.85 25.46,35.55C25.53,35.87 25.72,36.94 25.91,36.94C26.14,36.94 26.13,36.31 26.13,35.54C26.08,31.55 30.81,30.43 32.34,27.82C32.52,27.51 32.84,27.07 32.92,27.27C32.96,27.37 32.93,27.51 32.87,27.79C32.39,29.93 30.15,31.31 30.78,32.84C31.6,34.83 33.98,33.35 34.71,32.07C34.91,31.72 35.02,31.49 35.15,31.54C35.25,31.57 35.24,31.98 35.18,32.34C34.79,34.65 34.26,35.94 32.57,37.26C32.03,37.68 31.18,37.77 31.29,38.09C31.32,38.17 31.68,38.16 31.98,38.14C36.47,37.85 40.23,32.55 41.23,29.09C41.33,28.85 41.37,28.62 41.26,28.53C41.12,28.43 40.93,28.67 40.73,28.84C40.22,29.29 39.51,29.76 38.86,29.97L38.85,29.96Z" style="fill-rule:nonzero;"/>
                    </g>
                    <path d="M107.54,58.65L107.54,47L110.64,47L110.64,45.23L107.54,45.23L107.54,43.06C107.54,41.51 108.29,41.24 109.73,41.24C110.16,41.24 110.58,41.3 111.01,41.32L111.01,39.21C110.42,39.08 109.81,38.94 109.19,38.94C106.79,38.94 104.99,40.15 104.99,42.71L104.99,45.22L102.37,45.22L102.37,46.99L104.99,46.99L104.99,58.64L107.53,58.64L107.54,58.65Z" style="fill-rule:nonzero;"/>
                    <path d="M112.09,45.24L112.09,47.01L114.39,47.01L114.39,55.56C114.39,57.34 114.42,59.06 118.19,59.06C118.78,59.06 119.33,59 119.93,58.9L119.93,56.95C119.52,57.05 118.99,57.11 118.59,57.11C117.68,57.11 116.93,56.65 116.93,55.69L116.93,47.01L120.03,47.01L120.03,45.24L116.93,45.24L116.93,41.58L114.39,42.38L114.39,45.24L112.09,45.24Z" style="fill-rule:nonzero;"/>
                    <path d="M63.64,58.65L70.27,58.65C78.52,58.65 79.38,51.67 79.38,49C79.38,46.33 78.51,39.35 70.27,39.35L63.64,39.35L63.64,58.65ZM66.31,41.65L70.26,41.65C74.72,41.65 76.57,45.01 76.57,49C76.57,52.99 74.72,56.35 70.26,56.35L66.31,56.35L66.31,41.65Z" style="fill-rule:nonzero;"/>
                </g>
            </g>
        </g>
    </g>
</svg>
